PathFileType	4	(X/Y/Z)	/Users/itak/Documents/Research/Walk-IL/dataset/trc/00188_00008.trc
DataRate	CameraRate	NumFrames	NumMarkers	Units	OrigDataRate	OrigDataStartFrame	OrigNumFrames
100.000000	100.000000	4	53	mm	100.000000	406	812
Frame#	Time	RPSI			LPSI			L3			STRN			T10			C7			CLAV			RBAK			LBAK			LSHO			LUPA			LAEL			LAOL			LWTS			LWPS			LFRA			LIFD			LHPS			LHTS			RSHO			RUPA			RAEL			RAOL			RWTS			RWPS			RFRA			RIFD			RHTS			RHPS			RBHD			LFHD			RFHD			LBHD			LHIP			RHIP			RASI			LASI			LKNE			LTHI			LANK			LTIP			LTOE			LMT1			LMT5			LHEE			RKNE			RTHI			RANK			RTIP			RTOE			RMT1			RMT5			RHEE			
		X1	Y1	Z1	X2	Y2	Z2	X3	Y3	Z3	X4	Y4	Z4	X5	Y5	Z5	X6	Y6	Z6	X7	Y7	Z7	X8	Y8	Z8	X9	Y9	Z9	X10	Y10	Z10	X11	Y11	Z11	X12	Y12	Z12	X13	Y13	Z13	X14	Y14	Z14	X15	Y15	Z15	X16	Y16	Z16	X17	Y17	Z17	X18	Y18	Z18	X19	Y19	Z19	X20	Y20	Z20	X21	Y21	Z21	X22	Y22	Z22	X23	Y23	Z23	X24	Y24	Z24	X25	Y25	Z25	X26	Y26	Z26	X27	Y27	Z27	X28	Y28	Z28	X29	Y29	Z29	X30	Y30	Z30	X31	Y31	Z31	X32	Y32	Z32	X33	Y33	Z33	X34	Y34	Z34	X35	Y35	Z35	X36	Y36	Z36	X37	Y37	Z37	X38	Y38	Z38	X39	Y39	Z39	X40	Y40	Z40	X41	Y41	Z41	X42	Y42	Z42	X43	Y43	Z43	X44	Y44	Z44	X45	Y45	Z45	X46	Y46	Z46	X47	Y47	Z47	X48	Y48	Z48	X49	Y49	Z49	X50	Y50	Z50	X51	Y51	Z51	X52	Y52	Z52	X53	Y53	Z53	

407	4.06	-118.4368438720703	1007.199768066406	-799.4922485351562	-135.3724212646484	1017.575866699219	-921.130859375	-126.6043243408203	1050.243774414062	-859.3585205078125	141.7995300292969	1261.457641601562	-880.005859375	-161.8328857421875	1212.93896484375	-873.7748413085938	-84.26002502441406	1479.309936523438	-892.0142822265625	119.249641418457	1376.647094726562	-886.67431640625	-157.4524078369141	1306.24365234375	-780.2301025390625	-92.49303436279297	1459.465576171875	-992.8157958984375	-13.58334732055664	1447.422973632812	-1068.714233398438	-45.85147476196289	1320.083374023438	-1149	-23.30239105224609	1108.259155273438	-1189.1494140625	-62.12356567382812	1079.835083007812	-1116.2763671875	119.3968276977539	896.3556518554688	-1194.24853515625	35.89308929443359	863.8859252929688	-1226.775146484375	1.509477972984314	1001.8017578125	-1215.154418945312	156.5996551513672	733.1842651367188	-1184.149658203125	68.25753021240234	799.8648681640625	-1235.505004882812	138.72119140625	825.3137817382812	-1227.6611328125	-22.85581970214844	1458.244140625	-710.6266479492188	-51.27871322631836	1396.1689453125	-643.6429443359375	-110.8867950439453	1116.719970703125	-590.3759155273438	-93.46868896484375	1103.223754882812	-686.5376586914062	-5.775077819824219	874.7531127929688	-567.3163452148438	-90.74395751953125	869.0504150390625	-540.822021484375	-100.0713729858398	1043.926025390625	-564.4334106445312	-11.46716403961182	682.2005004882812	-576.1090087890625	1.985873699188232	777.8190307617188	-548.3165893554688	-75.88008117675781	783.0546264648438	-534.6162719726562	-40.47780227661133	1621.737548828125	-827.4456176757812	163.3680267333984	1680.128662109375	-874.9078979492188	112.5981521606445	1661.05615234375	-756.7879638671875	3.363948822021484	1648.719970703125	-954.0653076171875	-52.62856674194336	970.0144653320312	-1051.3232421875	47.36666488647461	958.664306640625	-696.8065795898438	119.8032455444336	993.8189086914062	-759.6998901367188	85.37814331054688	997.5785522460938	-1016.506103515625	-140.7773590087891	491.4369506835938	-1019.762573242188	-102.7267379760742	630.6516723632812	-1044.585205078125	-398.8197631835938	76.64038848876953	-962.6568603515625	-272.0004272460938	297.1597595214844	-1004.507751464844	-193.5344543457031	38.25820159912109	-1001.307922363281	-220.5617828369141	46.92855453491211	-944.1747436523438	-318.2442932128906	33.27360916137695	-1027.205932617188	-421.5590515136719	104.0536727905273	-884.4696655273438	219.3450012207031	497.2518310546875	-751.7164306640625	147.0930633544922	754.2153930664062	-698.35546875	327.5814819335938	22.95794486999512	-843.2842407226562	274.803466796875	391.69287109375	-774.8870239257812	500.0361633300781	117.2165298461914	-768.4188232421875	487.4725952148438	101.4654998779297	-831.7777099609375	403.6431884765625	42.93606185913086	-761.8017578125	312.606689453125	26.81754302978516	-927.5763549804688	
408	4.07	-106.0244293212891	1007.427673339844	-798.7050170898438	-122.4723358154297	1017.627624511719	-920.5792846679688	-114.0304260253906	1050.185302734375	-858.7546997070312	153.4107666015625	1262.273559570312	-878.1434936523438	-150.1553039550781	1212.4931640625	-872.9992065429688	-73.67936706542969	1479.381225585938	-890.1951293945312	130.2223052978516	1377.278564453125	-884.4741821289062	-146.5490875244141	1305.5751953125	-779.1582641601562	-81.44268798828125	1459.748291015625	-991.0517578125	-2.323524713516235	1448.02734375	-1066.872436523438	-34.68254089355469	1320.394287109375	-1146.982055664062	-13.31323719024658	1108.21630859375	-1185.82373046875	-52.03449249267578	1080.468017578125	-1112.616577148438	126.6986083984375	894.5281372070312	-1190.47802734375	42.68141174316406	863.1136474609375	-1222.791259765625	10.16100215911865	1001.45068359375	-1211.458984375	161.1877136230469	730.5714111328125	-1179.556518554688	73.92925262451172	798.5125732421875	-1231.20654296875	144.8754730224609	822.8709106445312	-1223.556030273438	-12.84566593170166	1457.9326171875	-708.6648559570312	-41.46907806396484	1395.589233398438	-642.0441284179688	-101.598503112793	1116.341918945312	-589.5892944335938	-83.22208404541016	1102.821655273438	-685.6292114257812	3.18970513343811	874.4553833007812	-565.81201171875	-82.278564453125	868.6594848632812	-540.0405883789062	-91.03324890136719	1043.536499023438	-563.5902099609375	-3.151139736175537	681.6314697265625	-574.5809936523438	10.44728660583496	777.366943359375	-546.7022705078125	-67.63842010498047	782.660400390625	-533.6956176757812	-30.78090858459473	1621.798217773438	-825.2364501953125	173.0621032714844	1681.106689453125	-871.3502807617188	121.6006698608398	1661.366088867188	-753.4714965820312	13.66034507751465	1649.348999023438	-951.5220947265625	-39.72896957397461	970.0653686523438	-1050.686157226562	59.9833869934082	959.5230102539062	-695.8705444335938	132.3408966064453	994.3357543945312	-758.9379272460938	98.26868438720703	997.90966796875	-1015.732421875	-129.4684600830078	491.90478515625	-1021.872680664062	-90.77188873291016	631.2295532226562	-1045.703857421875	-396.4270324707031	81.9036865234375	-964.354248046875	-264.601318359375	299.9889526367188	-1006.682495117188	-193.4661560058594	38.33382034301758	-1001.38818359375	-219.6481170654297	47.01264190673828	-944.5298461914062	-316.9551391601562	34.6716194152832	-1027.6640625	-418.2247009277344	111.3903427124023	-886.6465454101562	229.5626525878906	496.7376098632812	-751.7113037109375	159.6220703125	754.388427734375	-697.5420532226562	328.8180847167969	23.40536117553711	-844.5225830078125	283.8492126464844	390.6579284667969	-775.3360595703125	504.7801208496094	110.4642333984375	-767.7293090820312	492.1431274414062	95.19271087646484	-831.3837890625	405.1743774414062	40.74589538574219	-762.5288696289062	314.6280212402344	27.23261260986328	-929.137451171875	
409	4.08	-93.62519836425781	1008.010437011719	-797.8259887695312	-109.3396148681641	1017.932678222656	-919.9816284179688	-101.3886413574219	1050.40576171875	-858.0931396484375	165.1004180908203	1263.324462890625	-876.1341552734375	-138.3897247314453	1212.3193359375	-872.1622924804688	-62.99672317504883	1479.720336914062	-888.2803955078125	141.2762908935547	1378.143676757812	-882.149169921875	-135.5929565429688	1305.203369140625	-777.9804077148438	-70.28340148925781	1460.27978515625	-989.1870727539062	9.040167808532715	1448.851440429688	-1064.93896484375	-23.47446250915527	1320.87744140625	-1144.792602539062	-3.301725387573242	1108.380004882812	-1182.341918945312	-41.87426376342773	1081.311767578125	-1108.77978515625	133.8778991699219	892.8761596679688	-1186.552368164062	49.29040145874023	862.5552978515625	-1218.622192382812	18.76381874084473	1001.318664550781	-1207.593994140625	165.5731201171875	728.2144775390625	-1174.844360351562	79.38050842285156	797.398681640625	-1226.7578125	150.7728881835938	820.5689697265625	-1219.283569335938	-2.743698835372925	1457.8603515625	-706.5894775390625	-31.56290626525879	1395.24072265625	-640.3245849609375	-92.15255737304688	1116.153686523438	-588.649169921875	-72.91439819335938	1102.639526367188	-684.5808715820312	12.39681720733643	874.34326171875	-564.28271484375	-73.49102783203125	868.445068359375	-539.22216796875	-81.78759765625	1043.327392578125	-562.6319580078125	5.608959197998047	681.31396484375	-573.1431274414062	19.34576797485352	777.2376098632812	-545.1773071289062	-58.99336242675781	782.451904296875	-532.78759765625	-20.97980880737305	1622.138671875	-822.941650390625	182.8590240478516	1682.351806640625	-867.6649780273438	130.7311706542969	1661.979125976562	-750.0860595703125	24.08168983459473	1650.261596679688	-948.88037109375	-26.55596923828125	970.2736206054688	-1049.9345703125	72.54859924316406	960.7899169921875	-694.7036743164062	144.8994140625	995.1668090820312	-757.9244384765625	111.3955230712891	998.4647827148438	-1014.722473144531	-117.2934417724609	492.3525390625	-1024.201293945312	-78.15322113037109	631.869873046875	-1046.820678710938	-393.4816284179688	87.58146667480469	-966.1376342773438	-256.433837890625	302.9613952636719	-1009.082336425781	-193.4651641845703	38.47232437133789	-1001.474060058594	-218.5802459716797	47.08927536010742	-944.8857421875	-315.5147399902344	36.2464599609375	-1028.220092773438	-414.0559387207031	119.2183380126953	-888.9483032226562	239.9985961914062	496.8103332519531	-751.6659545898438	172.2062377929688	754.9791259765625	-696.6700439453125	329.9728698730469	24.11654853820801	-845.49169921875	293.1277770996094	390.2067260742188	-775.8060913085938	509.4972839355469	104.2244644165039	-767.168212890625	496.5473937988281	89.19712066650391	-830.9872436523438	406.6333618164062	39.28818511962891	-763.0146484375	316.3825988769531	28.02899360656738	-930.2840576171875	
410	4.09	-81.32579803466797	1008.965698242188	-796.9216918945312	-96.05461120605469	1018.523620605469	-919.3843383789062	-88.75655364990234	1050.939819335938	-857.421875	176.8173522949219	1264.6171875	-873.95654296875	-126.5848159790039	1212.441772460938	-871.3069458007812	-52.23731231689453	1480.335327148438	-886.3063354492188	152.3733520507812	1379.25830078125	-879.7002563476562	-124.6181335449219	1305.158203125	-776.7474365234375	-59.02557754516602	1461.07421875	-987.2593994140625	20.50738716125488	1449.909912109375	-1062.930297851562	-12.21671581268311	1321.559692382812	-1142.454956054688	6.732421398162842	1108.77783203125	-1178.715942382812	-31.65207290649414	1082.397705078125	-1104.779296875	140.9072875976562	891.4013061523438	-1182.47265625	55.73408889770508	862.2424926757812	-1214.263671875	27.32559013366699	1001.436218261719	-1203.569213867188	169.7611694335938	726.1543579101562	-1170.025756835938	84.62978363037109	796.560546875	-1222.156005859375	156.4298706054688	818.4619140625	-1214.856201171875	7.385847091674805	1458.057739257812	-704.4326782226562	-21.62044715881348	1395.159912109375	-638.5093994140625	-82.54671478271484	1116.18017578125	-587.5773315429688	-62.58000564575195	1102.709716796875	-683.4127197265625	21.85005760192871	874.4384155273438	-562.7483520507812	-64.37091827392578	868.4395141601562	-538.353515625	-72.33641815185547	1043.330322265625	-561.5731811523438	14.80957984924316	681.2686157226562	-571.7959594726562	28.67279052734375	777.4410400390625	-543.7489013671875	-49.94715118408203	782.4592895507812	-531.8792724609375	-11.09359073638916	1622.776977539062	-820.56884765625	192.7586212158203	1683.840942382812	-863.8644409179688	139.9847717285156	1662.8916015625	-746.64404296875	34.61626052856445	1651.457763671875	-946.1469116210938	-13.15267372131348	970.642578125	-1049.085815429688	84.91650390625	962.4588623046875	-693.3186645507812	157.3774261474609	996.353515625	-756.6268920898438	124.6999588012695	999.2698974609375	-1013.4541015625	-104.1963653564453	492.7354125976562	-1026.786865234375	-64.85601043701172	632.525634765625	-1047.957885742188	-389.8900451660156	93.68701934814453	-968.02734375	-247.4164123535156	306.0309753417969	-1011.743835449219	-193.5480041503906	38.67364501953125	-1001.562866210938	-217.3528747558594	47.15106964111328	-945.2491455078125	-313.8953857421875	38.00895309448242	-1028.888061523438	-408.9568786621094	127.5176391601562	-891.3950805664062	250.6889190673828	497.4555053710938	-751.5208740234375	184.756103515625	756.05078125	-695.7660522460938	331.0747375488281	24.97236442565918	-846.1851196289062	302.5842895507812	390.2528991699219	-776.2376098632812	514.0776977539062	98.60739898681641	-766.98779296875	500.5763244628906	83.68285369873047	-830.844970703125	408.1137390136719	38.4862174987793	-763.3519897460938	317.8367919921875	29.03076934814453	-931.0069580078125	
